<svg width="56" height="48" viewBox="0 0 56 48" fill="none" xmlns="http://www.w3.org/2000/svg">
<g clip-path="url(#clip0_13114_9297)">
<path d="M19.1655 6.04721C19.7009 4.71505 20.4372 3.48862 21.5304 2.49478C25.9033 -1.54398 33.132 -0.529005 36.0993 4.54589C38.3304 8.39434 40.6953 12.1582 42.9933 15.9644C46.8308 22.2869 50.7129 28.6093 54.5057 34.9529C57.6961 40.2604 54.238 46.9635 47.9017 47.8728C44.0196 48.4225 40.383 46.7309 38.375 43.4322C35.0061 37.871 31.6149 32.3098 28.2459 26.7697C28.179 26.6428 28.0898 26.5371 28.0005 26.4313C27.6435 26.1565 27.4874 25.7547 27.2643 25.3952C25.7694 22.9001 24.23 20.4261 22.7352 17.9521C21.7758 16.345 20.7718 14.7591 19.8125 13.1521C18.9423 11.7142 18.5408 10.1494 18.5854 8.50007C18.6523 7.65426 18.7639 6.80844 19.1655 6.04721Z" fill="#3C8BD9"/>
<path d="M19.1655 6.04736C18.9647 6.8086 18.7862 7.56983 18.7416 8.37335C18.6746 10.1496 19.1432 11.7989 20.0802 13.3425C22.5344 17.339 24.9886 21.3566 27.4204 25.3742C27.6435 25.7337 27.822 26.0932 28.0451 26.4315C26.7065 28.6306 25.3679 30.8086 24.0069 33.0077C22.1328 36.0738 20.2587 39.161 18.3623 42.2271C18.273 42.2271 18.2507 42.1848 18.2284 42.1214C18.2061 41.9522 18.273 41.8042 18.3177 41.635C19.2324 38.4632 18.4738 35.6509 16.1758 33.2403C14.7702 31.7813 12.9854 30.9566 10.9328 30.6817C8.2555 30.3223 5.89056 30.9778 3.77104 32.5637C3.39175 32.8386 3.14634 33.2403 2.70012 33.4518C2.61088 33.4518 2.56626 33.4095 2.54395 33.346C3.61486 31.591 4.66347 29.8359 5.73438 28.0808C10.1519 20.8068 14.5694 13.5328 19.0093 6.27996C19.0539 6.19538 19.1208 6.13194 19.1655 6.04736Z" fill="#FABC04"/>
<path d="M2.6333 33.4093C3.05721 33.0498 3.4588 32.6692 3.90501 32.3309C9.32653 28.271 17.47 31.2102 18.6524 37.6384C18.9425 39.182 18.7863 40.6622 18.2955 42.1423C18.2731 42.2692 18.2508 42.3749 18.2062 42.5018C18.0054 42.8401 17.8269 43.1996 17.6038 43.5379C15.6182 46.6463 12.6955 48.1899 8.858 47.9573C4.46278 47.6613 1.00462 44.5318 0.402226 40.3873C0.112186 38.3785 0.53609 36.4965 1.62932 34.7626C1.85242 34.382 2.12015 34.0437 2.36557 33.663C2.47713 33.5785 2.4325 33.4093 2.6333 33.4093Z" fill="#34A852"/>
<path d="M2.63365 33.4093C2.54441 33.4939 2.54441 33.6419 2.38823 33.663C2.36592 33.515 2.45517 33.4304 2.54441 33.3247L2.63365 33.4093Z" fill="#FABC04"/>
<path d="M18.2069 42.5016C18.1176 42.3535 18.2069 42.2478 18.2961 42.1421C18.3184 42.1632 18.3631 42.2055 18.3854 42.2267L18.2069 42.5016Z" fill="#E1C025"/>
</g>
<defs>
<clipPath id="clip0_13114_9297">
<rect width="56" height="48" fill="white"/>
</clipPath>
</defs>
</svg>
