<svg width="32" height="32" viewBox="0 0 32 32" fill="none" xmlns="http://www.w3.org/2000/svg">
<rect width="32" height="32" rx="6" fill="url(#paint0_linear_13020_1577)"/>
<path d="M13.1889 16.0971C13.1889 14.4887 14.4932 13.1845 16.1026 13.1845C17.712 13.1845 19.017 14.4887 19.017 16.0971C19.017 17.7056 17.712 19.0098 16.1026 19.0098C14.4932 19.0098 13.1889 17.7056 13.1889 16.0971ZM11.6134 16.0971C11.6134 18.575 13.6232 20.5836 16.1026 20.5836C18.582 20.5836 20.5918 18.575 20.5918 16.0971C20.5918 13.6192 18.582 11.6106 16.1026 11.6106C13.6232 11.6106 11.6134 13.6192 11.6134 16.0971ZM19.7204 11.4328C19.7203 11.6401 19.7818 11.8429 19.897 12.0153C20.0122 12.1878 20.176 12.3222 20.3676 12.4017C20.5593 12.4811 20.7702 12.502 20.9738 12.4616C21.1773 12.4212 21.3643 12.3214 21.511 12.1749C21.6578 12.0283 21.7578 11.8415 21.7984 11.6381C21.8389 11.4348 21.8182 11.2239 21.7389 11.0323C21.6596 10.8407 21.5252 10.6769 21.3527 10.5616C21.1802 10.4464 20.9774 10.3848 20.7699 10.3847H20.7695C20.4914 10.3848 20.2247 10.4953 20.028 10.6918C19.8313 10.8883 19.7206 11.1548 19.7204 11.4328ZM12.5706 23.2091C11.7183 23.1703 11.255 23.0284 10.9471 22.9085C10.539 22.7497 10.2477 22.5605 9.94153 22.2549C9.63533 21.9494 9.44579 21.6586 9.28759 21.2506C9.16757 20.9431 9.02559 20.48 8.98684 19.6281C8.94446 18.7071 8.936 18.4305 8.936 16.0972C8.936 13.7639 8.94516 13.488 8.98684 12.5663C9.02566 11.7144 9.16869 11.2522 9.28759 10.9438C9.44649 10.5358 9.63575 10.2448 9.94153 9.93875C10.2473 9.63274 10.5383 9.44332 10.9471 9.28521C11.2549 9.16526 11.7183 9.02337 12.5706 8.98465C13.4922 8.94229 13.769 8.93383 16.1026 8.93383C18.4362 8.93383 18.7133 8.94299 19.6356 8.98465C20.488 9.02344 20.9505 9.16638 21.2592 9.28521C21.6673 9.44332 21.9586 9.63316 22.2648 9.93875C22.571 10.2443 22.7598 10.5358 22.9187 10.9438C23.0387 11.2513 23.1807 11.7144 23.2194 12.5663C23.2618 13.488 23.2703 13.7639 23.2703 16.0972C23.2703 18.4305 23.2618 18.7064 23.2194 19.6281C23.1806 20.48 23.0379 20.943 22.9187 21.2506C22.7598 21.6586 22.5705 21.9496 22.2648 22.2549C21.959 22.5603 21.6673 22.7497 21.2592 22.9085C20.9514 23.0284 20.488 23.1703 19.6356 23.2091C18.7141 23.2514 18.4373 23.2599 16.1026 23.2599C13.7679 23.2599 13.4919 23.2514 12.5706 23.2091ZM12.4983 7.41278C11.5676 7.45513 10.9316 7.60262 10.3762 7.8186C9.80102 8.04165 9.31409 8.34088 8.82752 8.8264C8.34095 9.31191 8.0423 9.79931 7.81912 10.3742C7.60301 10.9296 7.45544 11.5648 7.41305 12.4949C7.36997 13.4265 7.36011 13.7244 7.36011 16.0971C7.36011 18.4699 7.36997 18.7677 7.41305 19.6993C7.45544 20.6295 7.60301 21.2647 7.81912 21.8201C8.0423 22.3946 8.34102 22.8826 8.82752 23.3679C9.31402 23.8532 9.80102 24.152 10.3762 24.3757C10.9326 24.5916 11.5676 24.7391 12.4983 24.7815C13.4309 24.8238 13.7284 24.8344 16.1026 24.8344C18.4768 24.8344 18.7748 24.8245 19.707 24.7815C20.6377 24.7391 21.2733 24.5916 21.829 24.3757C22.4039 24.152 22.8911 23.8534 23.3777 23.3679C23.8643 22.8824 24.1623 22.3946 24.3861 21.8201C24.6022 21.2647 24.7505 20.6295 24.7922 19.6993C24.8346 18.767 24.8444 18.4699 24.8444 16.0971C24.8444 13.7244 24.8346 13.4265 24.7922 12.4949C24.7498 11.5647 24.6022 10.9292 24.3861 10.3742C24.1623 9.79966 23.8635 9.31268 23.3777 8.8264C22.8919 8.34011 22.4039 8.04165 21.8297 7.8186C21.2733 7.60262 20.6377 7.45444 19.7077 7.41278C18.7755 7.37042 18.4775 7.35986 16.1033 7.35986C13.7291 7.35986 13.4309 7.36972 12.4983 7.41278Z" fill="white"/>
<path d="M13.1889 16.0971C13.1889 14.4887 14.4932 13.1845 16.1026 13.1845C17.712 13.1845 19.017 14.4887 19.017 16.0971C19.017 17.7056 17.712 19.0098 16.1026 19.0098C14.4932 19.0098 13.1889 17.7056 13.1889 16.0971ZM11.6134 16.0971C11.6134 18.575 13.6232 20.5836 16.1026 20.5836C18.582 20.5836 20.5918 18.575 20.5918 16.0971C20.5918 13.6192 18.582 11.6106 16.1026 11.6106C13.6232 11.6106 11.6134 13.6192 11.6134 16.0971ZM19.7204 11.4328C19.7203 11.6401 19.7818 11.8429 19.897 12.0153C20.0122 12.1878 20.176 12.3222 20.3676 12.4017C20.5593 12.4811 20.7702 12.502 20.9738 12.4616C21.1773 12.4212 21.3643 12.3214 21.511 12.1749C21.6578 12.0283 21.7578 11.8415 21.7984 11.6381C21.8389 11.4348 21.8182 11.2239 21.7389 11.0323C21.6596 10.8407 21.5252 10.6769 21.3527 10.5616C21.1802 10.4464 20.9774 10.3848 20.7699 10.3847H20.7695C20.4914 10.3848 20.2247 10.4953 20.028 10.6918C19.8313 10.8883 19.7206 11.1548 19.7204 11.4328ZM12.5706 23.2091C11.7183 23.1703 11.255 23.0284 10.9471 22.9085C10.539 22.7497 10.2477 22.5605 9.94153 22.2549C9.63533 21.9494 9.44579 21.6586 9.28759 21.2506C9.16757 20.9431 9.02559 20.48 8.98684 19.6281C8.94446 18.7071 8.936 18.4305 8.936 16.0972C8.936 13.7639 8.94516 13.488 8.98684 12.5663C9.02566 11.7144 9.16869 11.2522 9.28759 10.9438C9.44649 10.5358 9.63575 10.2448 9.94153 9.93875C10.2473 9.63274 10.5383 9.44332 10.9471 9.28521C11.2549 9.16526 11.7183 9.02337 12.5706 8.98465C13.4922 8.94229 13.769 8.93383 16.1026 8.93383C18.4362 8.93383 18.7133 8.94299 19.6356 8.98465C20.488 9.02344 20.9505 9.16638 21.2592 9.28521C21.6673 9.44332 21.9586 9.63316 22.2648 9.93875C22.571 10.2443 22.7598 10.5358 22.9187 10.9438C23.0387 11.2513 23.1807 11.7144 23.2194 12.5663C23.2618 13.488 23.2703 13.7639 23.2703 16.0972C23.2703 18.4305 23.2618 18.7064 23.2194 19.6281C23.1806 20.48 23.0379 20.943 22.9187 21.2506C22.7598 21.6586 22.5705 21.9496 22.2648 22.2549C21.959 22.5603 21.6673 22.7497 21.2592 22.9085C20.9514 23.0284 20.488 23.1703 19.6356 23.2091C18.7141 23.2514 18.4373 23.2599 16.1026 23.2599C13.7679 23.2599 13.4919 23.2514 12.5706 23.2091ZM12.4983 7.41278C11.5676 7.45513 10.9316 7.60262 10.3762 7.8186C9.80102 8.04165 9.31409 8.34088 8.82752 8.8264C8.34095 9.31191 8.0423 9.79931 7.81912 10.3742C7.60301 10.9296 7.45544 11.5648 7.41305 12.4949C7.36997 13.4265 7.36011 13.7244 7.36011 16.0971C7.36011 18.4699 7.36997 18.7677 7.41305 19.6993C7.45544 20.6295 7.60301 21.2647 7.81912 21.8201C8.0423 22.3946 8.34102 22.8826 8.82752 23.3679C9.31402 23.8532 9.80102 24.152 10.3762 24.3757C10.9326 24.5916 11.5676 24.7391 12.4983 24.7815C13.4309 24.8238 13.7284 24.8344 16.1026 24.8344C18.4768 24.8344 18.7748 24.8245 19.707 24.7815C20.6377 24.7391 21.2733 24.5916 21.829 24.3757C22.4039 24.152 22.8911 23.8534 23.3777 23.3679C23.8643 22.8824 24.1623 22.3946 24.3861 21.8201C24.6022 21.2647 24.7505 20.6295 24.7922 19.6993C24.8346 18.767 24.8444 18.4699 24.8444 16.0971C24.8444 13.7244 24.8346 13.4265 24.7922 12.4949C24.7498 11.5647 24.6022 10.9292 24.3861 10.3742C24.1623 9.79966 23.8635 9.31268 23.3777 8.8264C22.8919 8.34011 22.4039 8.04165 21.8297 7.8186C21.2733 7.60262 20.6377 7.45444 19.7077 7.41278C18.7755 7.37042 18.4775 7.35986 16.1033 7.35986C13.7291 7.35986 13.4309 7.36972 12.4983 7.41278Z" fill="white"/>
<defs>
<linearGradient id="paint0_linear_13020_1577" x1="31.385" y1="32" x2="-0.615039" y2="-8.6135e-07" gradientUnits="userSpaceOnUse">
<stop stop-color="#FBE18A"/>
<stop offset="0.21" stop-color="#FCBB45"/>
<stop offset="0.38" stop-color="#F75274"/>
<stop offset="0.52" stop-color="#D53692"/>
<stop offset="0.74" stop-color="#8F39CE"/>
<stop offset="1" stop-color="#5B4FE9"/>
</linearGradient>
</defs>
</svg>
