<svg width="32" height="32" viewBox="0 0 32 32" fill="none" xmlns="http://www.w3.org/2000/svg">
<rect width="32" height="32" rx="6" fill="#032D65"/>
<path fill-rule="evenodd" clip-rule="evenodd" d="M8.65199 7.35986C7.93872 7.35986 7.36011 7.92086 7.36011 8.612V23.5881C7.36011 24.2793 7.93879 24.8399 8.65199 24.8399H23.5482C24.2618 24.8399 24.8401 24.2793 24.8401 23.5879V8.612C24.8401 7.92086 24.2618 7.35986 23.5482 7.35986H8.65199ZM12.672 14.1188V21.9884H10.0563V14.1188H12.672ZM12.8444 11.6851C12.8444 12.4403 12.2766 13.0445 11.3647 13.0445L11.3475 13.0445C10.4696 13.0445 9.90207 12.4402 9.90207 11.685C9.90207 10.9127 10.4868 10.3252 11.382 10.3252C12.2766 10.3252 12.8273 10.9127 12.8444 11.6851ZM16.7353 21.9884H14.1198C14.1198 21.9884 14.1541 14.8573 14.1199 14.1191H16.7355V15.233C17.0832 14.6969 17.7055 13.9343 19.0929 13.9343C20.8138 13.9343 22.1041 15.0591 22.1041 17.4762V21.9884H19.4886V17.7788C19.4886 16.7208 19.1099 15.9992 18.1636 15.9992C17.4409 15.9992 17.0105 16.4859 16.8215 16.956C16.7524 17.1237 16.7353 17.3592 16.7353 17.5941V21.9884Z" fill="white"/>
</svg>
