<svg width="24" height="24" viewBox="0 0 24 24" fill="none" xmlns="http://www.w3.org/2000/svg">
<path d="M5.75789 5.90579L6.37089 5.29279C6.55842 5.10532 6.81272 5 7.07789 5C7.34305 5 7.59736 5.10532 7.78489 5.29279L10.3709 7.87879C10.5584 8.06631 10.6637 8.32062 10.6637 8.58579C10.6637 8.85095 10.5584 9.10526 10.3709 9.29279L8.57789 11.0858C8.43216 11.2314 8.33604 11.4193 8.30318 11.6227C8.27033 11.8261 8.30242 12.0347 8.39489 12.2188C9.48802 14.4038 11.2599 16.1757 13.4449 17.2688C13.6291 17.3611 13.8377 17.3931 14.0411 17.36C14.2445 17.327 14.4324 17.2307 14.5779 17.0848L16.3709 15.2928C16.5584 15.1053 16.8127 15 17.0779 15C17.3431 15 17.5974 15.1053 17.7849 15.2928L20.3709 17.8788C20.5584 18.0663 20.6637 18.3206 20.6637 18.5858C20.6637 18.851 20.5584 19.1053 20.3709 19.2928L19.7579 19.9058C18.7367 20.9272 17.3813 21.546 15.9405 21.6485C14.4998 21.751 13.0704 21.3304 11.9149 20.4638L10.7069 19.5568C8.96336 18.2491 7.41453 16.7003 6.10689 14.9568L5.19989 13.7488C4.3333 12.5933 3.91263 11.1639 4.01514 9.72315C4.11764 8.2824 4.73643 6.92699 5.75789 5.90579Z" fill="#F46337"/>
</svg>
