<svg width="48" height="49" viewBox="0 0 48 49" fill="none" xmlns="http://www.w3.org/2000/svg">
<path d="M0 22.2982C0.385639 16.6389 2.76696 11.3653 6.81617 7.31614C10.8654 3.26695 16.139 0.875997 21.7982 0.5V8.49266C14.1626 9.2543 8.75432 14.6625 7.99269 22.2982H0Z" fill="#4285F4"/>
<path d="M26.2018 0.720214C31.861 1.10196 37.1346 3.45922 41.1838 7.46751C45.233 11.4758 47.624 16.6961 48 22.2982L40.0073 22.2982C39.2457 14.7397 33.8374 9.38609 26.2018 8.63214L26.2018 0.720214Z" fill="#34A853"/>
<path d="M47.7792 26.7019C47.3975 32.3611 45.0402 37.6347 41.0319 41.6839C37.0236 45.7331 31.8033 48.1241 26.2012 48.5001L26.2013 40.5075C33.7598 39.7459 39.1133 34.3375 39.8673 26.7018L47.7792 26.7019Z" fill="#FBBC05"/>
<path d="M21.7982 40.5073V48.5001C16.139 48.1144 10.8654 45.7331 6.81617 41.6839C2.76696 37.6347 0.375998 32.3611 0 26.7019L7.99269 26.702C8.75432 34.3376 14.1626 39.7457 21.7982 40.5073Z" fill="#EB4335"/>
<path d="M22.0983 19.3512C21.7565 19.6568 21.2825 19.9062 20.6763 20.0912C20.07 20.2761 19.4857 20.3727 18.9346 20.3727V17.3888C19.8054 17.2842 20.6763 17.0349 21.5471 16.6247C22.4069 16.2145 23.0353 15.6917 23.41 15.0322H27.5218V33.7478H22.0983V19.3512Z" fill="#EB4335"/>
</svg>
